TestIreland
version=1
nRows=49
nColumns=25
inDegrees=yes
endheader
time	pelvis_tilt	pelvis_list	pelvis_rotation	pelvis_tx	pelvis_ty	pelvis_tz	hip_flexion_r	hip_adduction_r	hip_rotation_r	knee_flexion_r	knee_adduction_r	knee_rotation_r	ankle_angle_r	subtalar_angle_r	mtp_angle_r	hip_flexion_l	hip_adduction_l	hip_rotation_l	knee_flexion_l	knee_adduction_l	knee_rotation_l	ankle_angle_l	subtalar_angle_l	mtp_angle_l
1.260000	0.000000	0.000000	0.000000	0.000000	0.000000	0.000000	-7.774004	2.636004	-10.621231	7.091826	2.812020	-0.958856	11.319444	-16.074436	0.000000	30.766845	-2.943709	10.607149	5.772459	6.050010	-30.681980	-1.885431	-2.849119	0.000000
1.265000	0.000000	0.000000	0.000000	0.000000	0.000000	0.000000	-8.230937	2.622181	-10.550689	7.324525	2.765789	-0.816039	11.150432	-15.977629	0.000000	30.489302	-3.097090	10.882242	4.454823	5.849745	-30.998969	-1.912043	-2.839385	0.000000
1.270000	0.000000	0.000000	0.000000	0.000000	0.000000	0.000000	-8.677369	2.614391	-10.459351	7.564874	2.715007	-0.691500	10.901653	-15.816257	0.000000	30.264920	-3.257959	11.125405	3.360951	5.674828	-31.208298	-1.921675	-2.843109	0.000000
1.275000	0.000000	0.000000	0.000000	0.000000	0.000000	0.000000	-9.104941	2.588438	-10.361065	7.852249	2.657377	-0.547927	10.625004	-15.666572	0.000000	30.064810	-3.421603	11.278949	2.501548	5.521526	-31.240463	-1.917411	-2.754554	0.000000
1.280000	0.000000	0.000000	0.000000	0.000000	0.000000	0.000000	-9.488877	2.567870	-10.288410	8.177986	2.584285	-0.419078	10.347288	-15.526033	0.000000	29.924580	-3.581357	11.433757	1.858365	5.397708	-31.164628	-1.959652	-2.720488	0.000000
1.285000	0.000000	0.000000	0.000000	0.000000	0.000000	0.000000	-9.864238	2.546721	-10.246967	8.525565	2.492402	-0.295272	10.026398	-15.223367	0.000000	29.827153	-3.722984	11.569972	1.434179	5.307858	-30.993776	-1.984081	-2.750841	0.000000
1.290000	0.000000	0.000000	0.000000	0.000000	0.000000	0.000000	-10.221406	2.525672	-10.230908	8.865454	2.408565	-0.177812	9.633149	-14.953058	0.000000	29.804290	-3.843853	11.673467	1.264657	5.252230	-30.740757	-2.036279	-2.627522	0.000000
1.295000	0.000000	0.000000	0.000000	0.000000	0.000000	0.000000	-10.560730	2.486410	-10.237685	9.247844	2.305167	-0.079441	9.182208	-14.562623	0.000000	29.814434	-3.926810	11.757021	1.298922	5.228719	-30.474597	-2.060292	-2.492992	0.000000
1.300000	0.000000	0.000000	0.000000	0.000000	0.000000	0.000000	-10.877415	2.453988	-10.297652	9.627361	2.198648	0.006071	8.665357	-14.149935	0.000000	29.874802	-3.969041	11.860470	1.525737	5.231060	-30.218808	-2.091447	-2.371761	0.000000
1.305000	0.000000	0.000000	0.000000	0.000000	0.000000	0.000000	-11.179424	2.405550	-10.410034	10.069237	2.075543	0.138803	8.112999	-13.712651	0.000000	29.953053	-3.973794	11.937571	1.931634	5.253839	-29.900986	-2.166156	-2.186880	0.000000
1.310000	0.000000	0.000000	0.000000	0.000000	0.000000	0.000000	-11.469020	2.303249	-10.552646	10.537692	1.956384	0.266210	7.450473	-13.370359	0.000000	30.040828	-3.921701	11.960918	2.520216	5.301775	-29.598742	-2.235343	-1.975639	0.000000
1.315000	0.000000	0.000000	0.000000	0.000000	0.000000	0.000000	-11.739277	2.174850	-10.723026	11.065232	1.821492	0.364630	6.758096	-12.870293	0.000000	30.124415	-3.824237	11.974409	3.224638	5.376653	-29.269179	-2.342744	-1.952299	0.000000
1.320000	0.000000	0.000000	0.000000	0.000000	0.000000	0.000000	-11.995167	2.035157	-10.926011	11.632190	1.671361	0.460852	6.042996	-12.309790	0.000000	30.190862	-3.694162	11.972302	4.021965	5.463720	-28.900338	-2.583621	-1.929747	0.000000
1.325000	0.000000	0.000000	0.000000	0.000000	0.000000	0.000000	-12.239911	1.875588	-11.169161	12.237414	1.508918	0.540760	5.288389	-11.770095	0.000000	30.245748	-3.523845	11.937864	4.917414	5.563318	-28.474965	-2.997834	-1.949837	0.000000
1.330000	0.000000	0.000000	0.000000	0.000000	0.000000	0.000000	-12.458735	1.698155	-11.443652	12.861379	1.331958	0.576158	4.484164	-11.263769	0.000000	30.286400	-3.317500	11.882529	5.862255	5.649999	-28.027054	-3.553757	-2.040143	0.000000
1.335000	0.000000	0.000000	0.000000	0.000000	0.000000	0.000000	-12.666557	1.519775	-11.738518	13.501763	1.134408	0.589208	3.627627	-10.566081	0.000000	30.313699	-3.096235	11.809803	6.845984	5.725797	-27.531733	-4.269824	-2.112395	0.000000
1.340000	0.000000	0.000000	0.000000	0.000000	0.000000	0.000000	-12.837813	1.321903	-12.065585	14.153852	0.940582	0.584895	2.725713	-9.931583	0.000000	30.327521	-2.854207	11.734813	7.809935	5.782922	-27.002528	-5.269742	-2.150038	0.000000
1.345000	0.000000	0.000000	0.000000	0.000000	0.000000	0.000000	-12.967868	1.101211	-12.386891	14.872447	0.737735	0.520607	1.777514	-9.305084	0.000000	30.316749	-2.589122	11.647997	8.698357	5.806703	-26.523855	-6.555905	-2.335333	0.000000
1.350000	0.000000	0.000000	0.000000	0.000000	0.000000	0.000000	-13.039182	0.867824	-12.699018	15.683139	0.518179	0.426495	0.851434	-8.628308	0.000000	30.290395	-2.304519	11.586084	9.492665	5.805948	-26.071284	-7.875874	-2.670409	0.000000
1.355000	0.000000	0.000000	0.000000	0.000000	0.000000	0.000000	-13.064338	0.633121	-13.012201	16.509496	0.301786	0.285679	-0.199963	-8.088126	0.000000	30.258596	-1.998972	11.551875	10.222901	5.772061	-25.629759	-9.007639	-2.934182	0.000000
1.360000	0.000000	0.000000	0.000000	0.000000	0.000000	0.000000	-13.017342	0.394577	-13.313491	17.399068	0.061746	0.066893	-1.327146	-7.491108	0.000000	30.229101	-1.680540	11.552860	10.870140	5.721272	-25.249668	-9.973250	-3.249189	0.000000
1.365000	0.000000	0.000000	0.000000	0.000000	0.000000	0.000000	-12.898584	0.156377	-13.610103	18.381701	-0.187659	-0.238069	-2.598171	-6.854593	0.000000	30.225760	-1.353412	11.565619	11.537433	5.669373	-24.842812	-10.647511	-3.616070	0.000000
1.370000	0.000000	0.000000	0.000000	0.000000	0.000000	0.000000	-12.698144	-0.083341	-13.899152	19.426542	-0.442535	-0.594860	-3.921225	-6.207053	0.000000	30.271378	-1.014205	11.613055	12.281202	5.637452	-24.441663	-10.941488	-3.989218	0.000000
1.375000	0.000000	0.000000	0.000000	0.000000	0.000000	0.000000	-12.412022	-0.331860	-14.151548	20.523905	-0.686940	-1.045389	-5.365027	-5.765575	0.000000	30.381066	-0.662898	11.654961	13.149575	5.627086	-24.014109	-10.916835	-4.326672	0.000000
1.380000	0.000000	0.000000	0.000000	0.000000	0.000000	0.000000	-12.049051	-0.585300	-14.363199	21.709671	-0.950908	-1.574781	-6.834471	-5.325587	0.000000	30.529498	-0.303205	11.715728	14.135654	5.650745	-23.553416	-10.733640	-4.609060	0.000000
1.385000	0.000000	0.000000	0.000000	0.000000	0.000000	0.000000	-11.617517	-0.849973	-14.548548	22.986495	-1.215201	-2.142383	-8.386359	-4.978871	0.000000	30.684273	0.067185	11.767059	15.202190	5.689610	-23.037765	-10.333130	-4.835673	0.000000
1.390000	0.000000	0.000000	0.000000	0.000000	0.000000	0.000000	-11.109107	-1.132217	-14.705349	24.341485	-1.466034	-2.764079	-9.996149	-4.916708	0.000000	30.823753	0.451726	11.842997	16.281155	5.749175	-22.529007	-9.792321	-5.075980	0.000000
1.395000	0.000000	0.000000	0.000000	0.000000	0.000000	0.000000	-10.549409	-1.427327	-14.828753	25.758614	-1.735398	-3.438322	-11.756834	-4.970548	0.000000	30.907626	0.839295	11.914668	17.338072	5.824908	-22.032200	-9.098910	-5.451044	0.000000
1.400000	0.000000	0.000000	0.000000	0.000000	0.000000	0.000000	-9.956514	-1.713247	-14.933432	27.246566	-2.011199	-4.145525	-13.567687	-5.183370	0.000000	30.916713	1.217438	12.029861	18.345337	5.910140	-21.567036	-8.393526	-5.876217	0.000000
1.405000	0.000000	0.000000	0.000000	0.000000	0.000000	0.000000	-9.321641	-1.988900	-14.992271	28.826860	-2.284617	-4.884040	-15.381281	-5.502652	0.000000	30.841748	1.572540	12.142489	19.268625	5.989234	-21.071948	-7.783574	-6.346636	0.000000
1.410000	0.000000	0.000000	0.000000	0.000000	0.000000	0.000000	-8.627111	-2.262874	-15.007092	30.457201	-2.566709	-5.659866	-17.051107	-5.804486	0.000000	30.711058	1.923307	12.261624	20.112374	6.069125	-20.571608	-7.265483	-6.795447	0.000000
1.415000	0.000000	0.000000	0.000000	0.000000	0.000000	0.000000	-7.899011	-2.539998	-14.974292	32.131865	-2.856415	-6.461024	-18.598187	-6.090045	0.000000	30.509201	2.264096	12.369642	20.851659	6.136205	-20.020112	-6.694284	-7.193450	0.000000
1.420000	0.000000	0.000000	0.000000	0.000000	0.000000	0.000000	-7.131081	-2.805519	-14.904989	33.832277	-3.132650	-7.305063	-19.988052	-6.376297	0.000000	30.265673	2.595232	12.506557	21.498955	6.201721	-19.429692	-6.133072	-7.607500	0.000000
1.425000	0.000000	0.000000	0.000000	0.000000	0.000000	0.000000	-6.302693	-3.071808	-14.790378	35.560443	-3.392326	-8.177778	-21.287843	-6.664837	0.000000	29.980061	2.916342	12.621273	22.032847	6.247868	-18.806641	-5.602304	-8.077377	0.000000
1.430000	0.000000	0.000000	0.000000	0.000000	0.000000	0.000000	-5.436431	-3.346905	-14.652498	37.292218	-3.639293	-9.060484	-22.470269	-6.947020	0.000000	29.677607	3.241561	12.753129	22.496804	6.291916	-18.195025	-4.947384	-8.558960	0.000000
1.435000	0.000000	0.000000	0.000000	0.000000	0.000000	0.000000	-4.577666	-3.615462	-14.468689	39.043149	-3.850045	-9.943772	-23.529665	-7.125577	0.000000	29.337585	3.553773	12.898807	22.891327	6.334072	-17.595478	-4.269915	-9.090320	0.000000
1.440000	0.000000	0.000000	0.000000	0.000000	0.000000	0.000000	-3.711914	-3.882735	-14.235836	40.792288	-4.004347	-10.839803	-24.531212	-7.407844	0.000000	28.960241	3.852321	13.067489	23.221722	6.384391	-17.053649	-3.660984	-9.664713	0.000000
1.445000	0.000000	0.000000	0.000000	0.000000	0.000000	0.000000	-2.837429	-4.141082	-13.972356	42.550792	-4.142163	-11.733116	-25.442904	-7.641117	0.000000	28.542136	4.137800	13.221137	23.493749	6.427059	-16.525981	-3.121539	-10.186571	0.000000
1.450000	0.000000	0.000000	0.000000	0.000000	0.000000	0.000000	-1.972144	-4.380362	-13.690212	44.280207	-4.250784	-12.607801	-26.094085	-7.855053	0.000000	28.097242	4.409124	13.377579	23.707730	6.466684	-15.976274	-2.518365	-10.716772	0.000000
1.455000	0.000000	0.000000	0.000000	0.000000	0.000000	0.000000	-1.116457	-4.613810	-13.383076	45.990344	-4.341320	-13.445694	-26.593983	-8.023399	0.000000	27.611327	4.675008	13.487239	23.851680	6.484571	-15.463621	-2.001618	-11.238245	0.000000
1.460000	0.000000	0.000000	0.000000	0.000000	0.000000	0.000000	-0.219324	-4.835308	-13.060846	47.685914	-4.414847	-14.200359	-26.887456	-8.150658	0.000000	27.109013	4.922824	13.595868	23.925555	6.502903	-15.041258	-1.515354	-11.691232	0.000000
1.465000	0.000000	0.000000	0.000000	0.000000	0.000000	0.000000	0.704771	-5.046936	-12.716990	49.340911	-4.447258	-14.855866	-26.706637	-8.249549	0.000000	26.616797	5.152319	13.651054	23.966798	6.499096	-14.677221	-1.021166	-12.091644	0.000000
1.470000	0.000000	0.000000	0.000000	0.000000	0.000000	0.000000	1.647717	-5.244824	-12.333966	50.940504	-4.442286	-15.419791	-26.102439	-8.251147	0.000000	26.131280	5.362866	13.683460	23.975104	6.495803	-14.385494	-0.533849	-12.443292	0.000000
1.475000	0.000000	0.000000	0.000000	0.000000	0.000000	0.000000	2.633091	-5.420599	-11.938950	52.492656	-4.440076	-15.900785	-25.287167	-8.126896	0.000000	25.643641	5.548745	13.694701	23.951495	6.490539	-14.157780	-0.101253	-12.767734	0.000000
1.480000	0.000000	0.000000	0.000000	0.000000	0.000000	0.000000	3.678420	-5.560003	-11.561666	53.952911	-4.442378	-16.318392	-24.237160	-7.887752	0.000000	25.193581	5.705736	13.712174	23.914981	6.495110	-14.013356	0.313920	-13.040812	0.000000
1.485000	0.000000	0.000000	0.000000	0.000000	0.000000	0.000000	4.762774	-5.663323	-11.167817	55.304431	-4.418110	-16.681052	-23.058013	-7.659751	0.000000	24.765384	5.837113	13.717725	23.864889	6.496257	-13.957643	0.713006	-13.269284	0.000000
1.490000	0.000000	0.000000	0.000000	0.000000	0.000000	0.000000	5.882531	-5.729090	-10.786942	56.563605	-4.394778	-16.985389	-21.919223	-7.418218	0.000000	24.340181	5.948420	13.773455	23.778827	6.514476	-14.040908	1.096984	-13.481914	0.000000
1.495000	0.000000	0.000000	0.000000	0.000000	0.000000	0.000000	7.020369	-5.764290	-10.429513	57.715873	-4.363652	-17.238396	-20.937393	-7.227981	0.000000	23.922696	6.037426	13.833627	23.660457	6.525755	-14.199666	1.457790	-13.694286	0.000000
1.500000	0.000000	0.000000	0.000000	0.000000	0.000000	0.000000	8.152461	-5.771626	-10.076613	58.763519	-4.302128	-17.437487	-20.120768	-7.133097	0.000000	23.502301	6.104698	13.901417	23.511954	6.533074	-14.444618	1.771673	-13.867237	0.000000
